<?xml version="1.0" standalone="no"?>
<!DOCTYPE svg PUBLIC "-//W3C//DTD SVG 20010904//EN"
 "http://www.w3.org/TR/2001/REC-SVG-20010904/DTD/svg10.dtd">
<svg version="1.0" xmlns="http://www.w3.org/2000/svg"
 width="1024.000000pt" height="1024.000000pt" viewBox="0 0 1024.000000 1024.000000"
 preserveAspectRatio="xMidYMid meet">

<g transform="translate(0.000000,1024.000000) scale(0.100000,-0.100000)"
fill="#000000" stroke="none">
<path d="M0 5120 l0 -5120 5120 0 5120 0 0 5120 0 5120 -5120 0 -5120 0 0
-5120z m5490 3675 c460 -51 869 -170 1285 -375 826 -407 1510 -1153 1828
-1995 83 -218 169 -538 184 -677 l6 -58 -231 0 -231 0 -7 38 c-43 241 -155
585 -255 784 -16 32 -29 64 -29 73 0 16 75 75 96 75 8 0 34 -16 60 -35 49 -38
93 -45 114 -20 7 9 18 47 25 85 l12 69 -28 11 c-15 7 -36 21 -46 32 -46 51
-105 42 -122 -19 -6 -21 -11 -53 -11 -71 0 -30 -5 -35 -47 -54 -72 -32 -84
-23 -173 123 -253 416 -612 788 -1032 1068 -121 80 -129 96 -85 162 22 32 26
34 95 39 101 7 112 28 65 124 -23 47 -31 55 -62 60 -139 23 -177 -17 -120
-124 34 -65 35 -62 -20 -122 -14 -16 -33 -28 -43 -28 -10 0 -62 22 -116 49
-403 202 -811 314 -1297 354 l-150 12 -14 30 c-8 17 -15 48 -15 70 -1 38 1 41
51 68 94 50 94 88 1 147 l-60 38 -59 -35 c-32 -19 -63 -41 -70 -49 -22 -27 2
-66 61 -99 l55 -31 -2 -48 c-3 -87 -8 -90 -189 -104 -454 -35 -851 -142 -1274
-345 -74 -35 -141 -62 -148 -59 -7 2 -27 25 -44 50 l-31 46 23 40 c36 64 42
104 18 128 -17 17 -30 19 -86 16 l-67 -3 -34 -53 c-60 -96 -42 -135 66 -136
l68 -1 23 -43 c15 -26 22 -51 18 -65 -3 -14 -43 -47 -103 -87 -465 -312 -796
-660 -1072 -1127 -46 -77 -58 -86 -99 -77 -59 15 -82 33 -82 67 0 51 -19 106
-41 118 -29 15 -60 5 -108 -35 -22 -19 -45 -36 -51 -38 -10 -3 10 -134 24
-157 15 -23 70 -12 115 24 51 41 62 42 107 14 58 -35 59 -47 13 -146 -112
-242 -197 -502 -247 -758 l-8 -40 -232 -3 c-216 -2 -232 -1 -232 15 0 36 61
310 95 431 85 294 243 650 403 905 150 238 346 482 542 675 636 627 1415 989
2330 1082 58 6 121 12 140 14 70 8 409 -4 550 -19z m-293 -497 c24 -27 39 -68
24 -68 -5 0 -16 -2 -24 -6 -10 -4 -17 8 -24 45 -11 56 -6 62 24 29z m-137 -34
c0 -38 -3 -45 -16 -40 -9 3 -22 6 -30 6 -20 0 -17 23 7 54 29 37 39 32 39 -20z
m0 -97 c0 -7 -11 -66 -25 -132 -36 -174 -34 -202 24 -267 17 -20 28 -38 24
-42 -15 -15 -88 -4 -157 24 -42 16 -81 27 -89 25 -7 -3 -20 0 -29 7 -16 12
-15 20 6 108 12 52 32 113 44 135 25 49 84 106 137 133 47 25 65 27 65 9z
m241 -55 c58 -52 92 -119 115 -229 20 -97 16 -113 -28 -113 -18 0 -60 -11 -93
-25 -58 -24 -155 -34 -155 -17 0 5 13 21 30 37 57 55 63 136 20 313 -11 46
-18 87 -15 92 10 16 78 -15 126 -58z m-973 15 c23 -24 138 -324 148 -384 10
-67 -47 -104 -98 -64 -40 32 -158 334 -158 404 0 62 65 89 108 44z m1671 -9
c14 -24 14 -34 -3 -95 -32 -123 -115 -321 -144 -343 -45 -36 -102 -8 -102 51
0 57 127 384 158 407 28 21 74 11 91 -20z m-2387 -215 c9 -10 21 -29 28 -42
11 -21 10 -26 -5 -38 -22 -15 -39 -5 -61 39 -12 23 -13 33 -3 44 15 18 23 18
41 -3z m3058 -10 c0 -14 -42 -72 -56 -77 -27 -10 -46 12 -33 38 24 44 51 66
70 55 11 -5 19 -12 19 -16z m-3205 -79 c9 -14 17 -38 18 -52 3 -42 -33 -36
-58 10 -16 30 -17 39 -6 52 18 22 26 20 46 -10z m3346 10 c11 -13 10 -22 -6
-52 -22 -41 -58 -51 -63 -17 -3 22 32 85 47 85 5 0 15 -7 22 -16z m-2972 -40
c12 -15 21 -32 21 -39 0 -7 16 -42 35 -78 40 -75 45 -133 21 -224 -8 -29 -12
-53 -10 -53 3 0 30 13 62 29 206 104 461 186 719 232 169 31 566 38 751 15
262 -34 541 -115 784 -230 54 -25 100 -46 103 -46 3 0 1 8 -4 19 -6 10 -15 51
-22 90 l-11 71 53 113 c28 61 57 115 63 119 32 22 150 -8 171 -42 4 -6 -20
-48 -52 -93 -137 -190 -175 -268 -149 -300 6 -8 22 -22 36 -31 52 -32 96 17
223 247 33 59 63 107 66 107 4 0 26 -14 49 -31 76 -56 91 -116 44 -171 -16
-18 -43 -54 -60 -79 -36 -53 -88 -83 -174 -101 -32 -7 -58 -15 -58 -18 0 -4
24 -22 53 -41 100 -65 253 -194 382 -324 137 -137 237 -262 350 -434 l68 -104
17 69 c26 112 63 182 104 199 51 22 155 19 220 -5 62 -24 111 -59 99 -71 -4
-4 -62 -27 -128 -49 -130 -45 -165 -63 -237 -124 -55 -45 -60 -71 -27 -118 20
-27 26 -30 64 -26 60 7 155 57 272 144 58 42 108 72 114 68 16 -9 5 -93 -19
-146 -42 -94 -115 -148 -202 -148 -25 0 -78 9 -117 19 -40 11 -73 17 -73 15 0
-3 13 -30 29 -62 38 -76 107 -265 136 -374 l24 -88 -64 0 -63 0 -12 53 c-42
175 -192 517 -300 682 -146 222 -347 447 -535 600 -285 231 -651 407 -1007
484 -343 74 -740 72 -1083 -5 -249 -55 -543 -175 -754 -307 -496 -309 -900
-848 -1065 -1418 l-24 -84 -62 -3 -62 -3 7 33 c15 72 80 259 130 374 58 135
62 126 -39 98 -27 -8 -73 -14 -101 -14 -94 0 -183 81 -215 194 -14 49 -7 96
13 96 7 0 54 -31 105 -69 103 -79 206 -132 268 -139 40 -4 44 -2 63 29 30 49
26 67 -21 111 -62 57 -116 85 -241 125 -61 19 -116 40 -122 45 -17 16 50 66
111 84 76 22 183 16 221 -12 27 -20 65 -116 90 -222 l8 -33 70 108 c178 275
416 525 683 717 l112 81 -61 12 c-97 20 -144 46 -181 99 -18 26 -45 62 -60 80
-29 33 -36 80 -18 114 13 24 100 91 110 85 4 -2 48 -76 99 -164 69 -121 100
-165 126 -181 l35 -22 35 22 c61 38 50 73 -84 274 -50 76 -89 142 -85 148 12
18 88 48 126 48 28 0 42 -6 57 -26z m-906 -428 c45 -19 305 -261 324 -302 32
-66 -25 -116 -91 -80 -44 24 -272 230 -307 278 -35 50 -36 62 -4 93 28 29 34
30 78 11z m4445 -8 c20 -17 14 -59 -14 -99 -30 -44 -239 -235 -292 -266 -46
-28 -66 -29 -92 -3 -47 47 -26 79 165 253 148 135 184 153 233 115z m-2174
-52 c70 -29 66 24 66 -833 l0 -773 -40 0 -40 0 0 774 c0 870 7 801 -77 801
-33 0 -48 -5 -59 -19 -12 -17 -14 -140 -14 -788 l0 -768 -35 0 -35 0 0 778 c0
858 -4 812 63 831 49 14 134 13 171 -3z m-304 -81 c0 -17 -34 -55 -64 -72 -11
-6 -21 -27 -25 -49 -6 -39 -7 -39 -59 -44 -59 -6 -87 -27 -78 -58 8 -24 33
-32 107 -32 74 0 109 -24 92 -63 -11 -23 -19 -26 -93 -33 -80 -7 -110 -20
-110 -49 0 -30 31 -45 90 -45 72 0 106 -12 115 -40 12 -38 -17 -56 -102 -64
-80 -6 -103 -17 -103 -46 0 -30 27 -42 107 -50 56 -6 80 -12 90 -26 17 -24 17
-30 -7 -54 -16 -16 -33 -20 -86 -20 -78 0 -104 -12 -104 -46 0 -29 31 -44 91
-44 l39 0 0 -178 c0 -170 1 -179 25 -224 23 -43 25 -58 25 -168 l0 -120 -34 0
-34 0 -3 83 -4 82 -82 114 -83 114 0 558 c0 494 2 559 16 573 23 23 274 24
274 1z m706 1 c18 -14 19 -32 19 -568 0 -536 -1 -554 -20 -583 -11 -16 -48
-70 -82 -119 l-63 -89 0 -83 0 -84 -35 0 -35 0 0 125 c0 101 3 132 18 158 14
26 18 66 22 217 l5 185 51 6 c64 8 74 14 74 44 0 33 -27 45 -100 45 -73 0
-100 12 -100 45 0 34 36 55 95 56 80 2 100 10 103 46 4 36 0 38 -103 48 -78 8
-95 17 -95 51 0 35 36 54 103 54 70 0 97 12 97 44 0 34 -17 43 -98 49 -78 6
-102 18 -102 48 0 36 27 49 104 49 77 0 96 9 96 46 0 30 -11 36 -79 43 -40 4
-56 10 -57 21 -1 8 -2 25 -2 38 -1 14 -14 30 -35 42 -33 20 -62 62 -50 74 4 3
61 6 128 6 89 0 126 -4 141 -14z m-1378 -343 c32 -20 62 -72 62 -108 0 -16
-11 -49 -24 -71 -18 -31 -21 -46 -13 -59 11 -21 -13 -45 -44 -45 -29 0 -31 17
-4 38 14 11 25 26 25 34 0 18 -45 68 -60 68 -52 0 -68 -64 -25 -98 30 -23 23
-32 -24 -32 -72 0 -141 63 -141 130 0 36 40 110 71 133 52 37 127 42 177 10z
m1933 1 c68 -34 107 -131 76 -190 -29 -56 -62 -77 -127 -82 -40 -3 -60 -1 -60
7 0 6 6 11 13 11 16 0 41 27 50 52 3 9 -2 27 -11 38 -23 29 -63 19 -86 -21
-18 -30 -18 -31 5 -55 27 -28 15 -50 -21 -39 -17 5 -21 13 -17 33 3 15 -3 41
-14 61 -10 20 -19 55 -19 78 0 35 6 50 33 79 48 52 110 62 178 28z m-3764
-215 c8 -8 8 -18 1 -35 -10 -21 -13 -22 -32 -9 -11 8 -31 15 -43 15 -34 0 -28
15 10 28 44 14 51 14 64 1z m5511 -5 c29 -8 28 -24 -1 -24 -13 0 -32 -7 -43
-15 -28 -21 -34 -18 -34 15 0 26 4 30 28 30 15 0 37 -3 50 -6z m-5602 -129 c9
-14 22 -25 30 -25 23 0 25 -19 3 -30 -26 -15 -45 1 -58 48 -12 39 2 42 25 7z
m5661 18 c-2 -5 -11 -25 -21 -46 -15 -32 -21 -37 -39 -31 -33 10 -33 12 9 49
36 32 60 45 51 28z m-4474 -499 c88 -45 319 -188 324 -202 10 -24 -12 -47 -43
-46 -27 1 -372 99 -381 108 -5 5 57 156 63 156 3 0 19 -7 37 -16z m3320 -63
c15 -41 26 -75 24 -77 -2 -2 -71 -24 -153 -48 -82 -24 -162 -49 -177 -55 -61
-24 -110 -3 -91 40 10 21 342 221 359 215 6 -1 23 -35 38 -75z m-4371 -221
c22 -6 46 -23 58 -40 l21 -30 -177 0 c-111 0 -174 4 -168 9 19 19 160 70 194
71 19 0 52 -5 72 -10z m5551 -31 c34 -17 64 -33 66 -35 2 -2 -76 -4 -174 -4
l-177 0 14 23 c43 66 159 73 271 16z m-5655 -285 c92 -19 194 -70 247 -124
l38 -39 -48 -43 c-100 -88 -90 -85 -135 -44 -50 45 -82 61 -152 76 -160 32
-315 -46 -390 -198 -30 -61 -33 -74 -33 -162 0 -82 4 -103 26 -151 32 -68 81
-118 145 -150 71 -35 198 -39 294 -10 82 25 85 30 92 139 l5 72 -124 0 -124 0
6 58 c3 31 9 69 11 85 l6 27 214 0 c164 0 214 -3 214 -12 0 -41 -44 -406 -51
-425 -10 -27 -145 -94 -236 -117 -158 -41 -291 -30 -420 34 -146 72 -231 195
-254 368 -11 80 -10 102 5 174 23 109 68 198 136 272 141 152 325 212 528 170z
m2754 2 c46 -9 101 -27 138 -47 71 -37 162 -116 158 -134 -2 -7 -34 -38 -73
-68 l-70 -56 -24 30 c-73 93 -226 127 -354 79 -73 -28 -149 -100 -185 -177
-24 -51 -27 -70 -27 -163 0 -95 3 -110 27 -155 60 -113 153 -170 278 -170 93
0 155 26 222 93 l48 46 32 -30 c18 -17 51 -43 72 -59 l40 -29 -66 -60 c-166
-154 -386 -188 -586 -90 -179 88 -283 274 -268 481 20 266 209 475 466 512 78
12 86 12 172 -3z m628 -28 c0 -24 -7 -101 -15 -173 -8 -71 -15 -145 -15 -163
l0 -33 34 35 c39 42 124 83 187 92 104 14 219 -37 258 -115 41 -79 43 -118 21
-340 -11 -113 -23 -227 -26 -253 l-6 -48 -89 0 c-49 0 -89 3 -89 8 0 4 9 93
20 197 28 270 27 296 -11 340 -81 92 -246 53 -300 -71 -13 -27 -25 -108 -39
-252 -11 -117 -20 -215 -20 -217 0 -3 -40 -5 -90 -5 -49 0 -90 3 -90 8 0 4 13
149 30 322 16 173 37 394 45 490 23 246 10 220 110 220 l85 0 0 -42z m2880 31
c0 -20 -80 -835 -92 -931 l-11 -98 -84 0 -83 0 0 51 0 51 -41 -36 c-69 -59
-124 -80 -209 -80 -177 -1 -304 124 -317 311 -13 193 77 358 235 430 45 21 72
27 132 27 91 0 132 -16 198 -78 l49 -46 17 168 c9 92 19 184 22 205 l6 37 89
0 c56 0 89 -4 89 -11z m-5375 -284 c134 -35 219 -130 245 -275 6 -35 8 -85 5
-112 l-7 -48 -278 0 -278 0 8 -33 c31 -137 221 -190 349 -96 22 16 46 26 53
23 7 -4 30 -26 51 -50 l39 -43 -29 -26 c-44 -40 -142 -84 -212 -96 -76 -14
-181 0 -243 32 -59 30 -126 96 -156 154 -25 46 -27 59 -27 170 0 111 2 124 28
176 55 112 157 197 272 225 69 17 111 17 180 -1z m962 -14 c53 -27 99 -78 118
-130 20 -58 19 -167 -5 -386 -11 -99 -20 -188 -20 -197 0 -16 -11 -18 -90 -18
-87 0 -90 1 -90 23 0 12 9 119 21 238 22 213 22 217 3 254 -29 60 -62 78 -134
77 -47 -1 -72 -7 -107 -27 -72 -43 -87 -89 -108 -325 -23 -270 -9 -240 -115
-240 -50 0 -90 3 -90 8 0 4 5 50 10 102 14 126 60 608 60 620 0 6 36 10 85 10
l85 0 0 -52 0 -52 28 26 c80 73 152 100 249 93 34 -2 79 -13 100 -24z m2717
-2 c79 -31 148 -95 188 -177 30 -60 33 -75 33 -157 0 -83 -3 -96 -37 -167 -44
-93 -104 -155 -191 -198 -204 -100 -448 -30 -537 155 -32 66 -39 188 -15 271
42 147 166 262 320 294 61 14 175 3 239 -21z m820 -71 c-7 -51 -13 -94 -13
-94 -1 -1 -32 -4 -70 -6 -60 -3 -75 -8 -108 -34 -70 -56 -83 -94 -104 -297
-10 -100 -19 -192 -19 -204 0 -22 -3 -23 -91 -23 l-92 0 7 73 c19 225 58 625
62 645 4 21 9 22 89 22 l86 0 -7 -67 c-7 -72 -6 -72 39 -12 36 50 116 89 182
89 l51 0 -12 -92z m-5739 -1003 c56 -176 114 -316 201 -482 l84 -162 -33 -24
c-65 -49 -75 -51 -117 -23 -90 59 -122 40 -130 -77 l-5 -72 57 -27 c85 -41
111 -36 128 21 5 19 7 53 3 76 l-5 43 51 27 c29 14 56 23 62 19 5 -3 35 -45
66 -92 238 -371 657 -778 1041 -1014 59 -36 61 -38 52 -69 -19 -65 -46 -83
-118 -80 -96 4 -116 -43 -60 -136 l32 -53 57 0 c87 0 109 11 109 57 0 22 -10
54 -24 78 -23 37 -23 41 -9 70 8 16 25 40 36 52 l20 23 111 -59 c413 -219 842
-335 1398 -377 87 -6 87 -6 97 -38 6 -17 13 -49 17 -71 l6 -41 -52 -24 c-55
-26 -70 -44 -70 -83 0 -19 14 -33 61 -63 34 -22 65 -38 70 -37 4 2 33 19 64
39 53 33 56 37 53 72 -3 33 -8 40 -56 66 -29 15 -56 34 -59 42 -7 18 27 125
41 129 6 2 92 11 190 20 217 19 365 44 550 90 252 64 499 158 715 271 l124 65
28 -27 c15 -14 33 -39 39 -54 10 -24 8 -33 -14 -67 -36 -55 -42 -90 -21 -113
15 -16 31 -20 89 -20 l71 0 35 65 c33 62 34 66 20 93 -15 25 -20 27 -85 27
l-70 1 -29 47 c-15 25 -26 53 -23 61 3 8 63 52 134 98 369 242 708 579 949
946 41 61 77 112 79 112 13 0 96 -44 103 -54 4 -6 7 -33 8 -61 2 -107 30 -125
125 -80 l59 29 0 73 c0 60 -4 77 -20 93 -27 27 -48 25 -103 -10 -47 -29 -49
-30 -80 -14 -18 9 -42 25 -53 36 l-22 20 93 191 c87 178 160 361 200 500 l16
57 235 0 c129 0 234 -3 234 -8 0 -33 -86 -304 -142 -447 -187 -478 -454 -882
-827 -1256 -503 -502 -1040 -807 -1746 -989 -341 -89 -623 -125 -960 -125
-352 1 -625 39 -967 136 -997 282 -1871 998 -2328 1909 -113 225 -231 535
-274 719 l-14 61 236 -2 236 -3 31 -100z m894 5 c56 -128 176 -329 271 -455
41 -54 135 -161 209 -237 228 -235 407 -366 686 -503 320 -156 602 -228 980
-251 135 -8 356 9 530 41 765 141 1424 644 1768 1352 24 50 49 105 55 122 11
30 12 31 76 31 46 0 66 -4 66 -12 0 -7 -27 -76 -60 -152 -33 -77 -58 -141 -56
-143 2 -3 28 3 57 11 74 22 137 20 179 -5 113 -69 170 -148 170 -236 0 -29 -4
-53 -10 -53 -5 0 -59 37 -119 83 -118 89 -216 144 -273 154 -35 5 -37 3 -57
-36 -27 -52 -21 -64 61 -130 67 -55 164 -105 271 -142 37 -13 67 -29 67 -36 0
-6 -29 -26 -65 -44 -63 -31 -69 -32 -151 -26 -49 4 -96 13 -109 21 -25 16 -63
103 -95 214 l-21 74 -74 -109 c-166 -246 -410 -493 -653 -663 -70 -50 -70 -49
31 -80 47 -15 73 -29 92 -53 14 -17 46 -56 70 -86 49 -60 56 -91 30 -141 -21
-40 -99 -94 -113 -77 -5 6 -46 77 -91 157 -80 142 -117 190 -147 190 -27 0
-72 -29 -79 -51 -10 -29 49 -143 129 -250 96 -129 94 -123 43 -154 -49 -28
-111 -33 -143 -11 -11 8 -26 34 -33 58 -7 24 -27 69 -44 101 -27 53 -29 65
-24 125 3 37 9 75 12 84 5 13 -23 3 -107 -36 -399 -189 -820 -272 -1241 -246
-345 22 -628 95 -936 241 l-123 59 6 -28 c3 -15 9 -52 12 -82 6 -49 3 -63 -23
-115 -17 -33 -36 -77 -42 -97 -23 -70 -83 -95 -154 -64 -75 32 -75 32 -7 126
148 205 180 280 134 315 -27 21 -65 30 -83 18 -9 -5 -61 -84 -116 -176 -55
-92 -105 -167 -110 -167 -26 0 -88 55 -105 93 -22 48 -16 69 38 134 87 107
103 119 180 138 39 9 72 21 72 25 0 4 -35 31 -77 61 -281 194 -568 507 -735
804 -32 57 -36 60 -70 59 -59 -2 -187 -76 -331 -192 -37 -30 -70 -52 -73 -49
-3 3 -6 28 -6 56 1 88 54 164 160 227 64 39 108 43 191 18 29 -8 55 -13 58
-11 2 3 -10 33 -27 67 -27 54 -100 226 -100 236 0 2 30 4 68 4 l67 0 44 -100z
m1971 1 c0 -97 1 -99 34 -143 19 -25 41 -48 48 -50 7 -3 17 -7 23 -9 10 -4 11
-3 13 174 l2 127 35 0 35 0 2 -167 3 -168 70 0 70 0 3 168 2 167 40 0 39 0 3
-156 3 -156 29 23 c16 12 42 43 57 68 26 41 29 53 29 133 l0 88 35 0 35 0 0
-135 0 -135 -37 -41 c-89 -99 -274 -144 -427 -104 -85 22 -124 43 -178 95
l-48 46 0 137 0 137 40 0 40 0 0 -99z m-1281 74 c73 -37 42 -145 -43 -145 -79
0 -106 121 -33 150 32 13 44 12 76 -5z m3185 -6 c55 -43 21 -139 -50 -139 -75
0 -108 87 -50 136 33 29 65 30 100 3z m-3863 -526 c-28 -109 -61 -175 -97
-192 -41 -18 -152 -25 -200 -12 -46 12 -108 51 -107 66 1 5 43 26 95 45 129
49 191 85 256 150 72 70 82 60 53 -57z m1372 6 c12 -7 23 -13 25 -14 1 -1 -2
-13 -7 -27 -6 -17 -5 -44 5 -84 17 -74 6 -122 -36 -158 -85 -71 -219 -20 -250
94 -13 48 -5 85 26 127 31 41 81 57 150 48 45 -5 54 -4 54 9 0 19 4 20 33 5z
m1727 -10 c0 -7 23 -8 68 -3 77 7 115 -6 150 -51 49 -62 40 -138 -22 -200 -70
-69 -152 -69 -216 0 -20 22 -25 36 -24 78 0 29 4 71 9 94 5 29 4 47 -4 57 -10
11 -8 17 6 25 23 13 33 14 33 0z m-3615 -33 c17 -13 17 -15 -16 -44 -52 -48
-62 -41 -32 23 19 39 22 41 48 21z m5533 -31 c18 -55 12 -58 -32 -18 -37 34
-38 37 -20 50 26 19 37 12 52 -32z m-5445 -116 c-5 -17 -12 -20 -46 -17 -55 4
-57 23 -5 35 52 11 58 9 51 -18z m5380 13 c33 -5 35 -17 5 -26 -56 -15 -86 -2
-74 31 4 10 12 13 24 8 9 -4 29 -10 45 -13z m-2703 -121 c0 -12 16 -29 44 -45
144 -84 95 -276 -69 -276 -110 0 -187 109 -140 200 16 30 74 80 93 80 7 0 12
11 12 23 0 13 3 27 7 30 3 4 17 7 30 7 16 0 23 -6 23 -19z m-1879 -142 c35
-35 18 -65 -107 -187 -151 -147 -211 -192 -255 -192 -44 0 -59 15 -59 58 0 40
47 90 229 245 123 105 152 116 192 76z m3797 8 c29 -16 270 -232 301 -270 33
-39 33 -84 0 -109 -21 -16 -30 -17 -53 -8 -65 24 -340 278 -352 324 -14 59 45
95 104 63z m-2602 -698 c28 -31 21 -80 -32 -225 -72 -199 -98 -244 -142 -244
-39 0 -62 27 -62 71 0 34 64 224 119 353 29 66 79 86 117 45z m1407 -7 c30
-31 136 -311 145 -380 3 -32 0 -47 -13 -62 -24 -27 -67 -25 -93 3 -33 35 -152
352 -152 405 0 20 43 62 64 62 12 0 34 -12 49 -28z m-2373 -48 c0 -21 -39 -94
-50 -94 -5 0 -14 8 -19 18 -10 19 10 81 31 93 16 10 38 0 38 -17z m3316 -19
c14 -34 6 -75 -14 -75 -13 0 -55 87 -48 99 15 24 47 11 62 -24z m-1736 4 c0
-6 -12 -31 -26 -55 -33 -57 -35 -125 -5 -277 25 -129 24 -117 6 -117 -41 0
-138 75 -175 135 -17 27 -70 212 -70 244 0 5 19 12 43 16 23 4 56 14 72 23 68
35 155 52 155 31z m220 -20 c36 -18 76 -31 90 -31 54 3 57 -8 31 -110 -13 -51
-29 -107 -36 -124 -18 -44 -78 -108 -134 -143 -72 -44 -78 -34 -51 90 30 141
29 222 -4 286 -14 28 -22 53 -19 57 14 14 62 4 123 -25z m-1666 -35 c24 -9 19
-40 -12 -75 -22 -24 -33 -30 -50 -25 -29 9 -28 15 8 64 33 46 31 45 54 36z
m3036 -39 c32 -47 32 -65 0 -65 -40 0 -88 82 -59 101 22 14 26 11 59 -36z
m-1600 -455 l-1 -35 -29 33 c-36 39 -37 50 -7 54 28 4 37 -8 37 -52z m170 39
c0 -12 -57 -75 -62 -69 -3 3 -1 23 4 46 8 37 11 41 33 36 14 -2 25 -8 25 -13z
m4014 -1575 c12 -11 16 -36 16 -94 0 -102 -8 -110 -101 -110 -106 0 -109 3
-109 110 0 107 3 109 107 110 52 0 76 -4 87 -16z m160 -63 c-42 -11 -54 -19
-54 -40 0 -22 19 -41 42 -41 21 0 23 11 6 28 -9 9 -8 12 8 12 15 0 20 -7 19
-27 0 -32 -17 -39 -56 -23 -63 27 -41 101 30 99 l36 -1 -31 -7z m518 -21 c-5
-34 4 -39 24 -13 7 10 16 15 20 11 4 -4 2 -13 -4 -21 -7 -8 -7 -18 -2 -27 17
-27 10 -36 -9 -12 -22 25 -36 29 -28 7 4 -8 2 -17 -3 -20 -6 -4 -10 17 -10 49
0 31 4 56 8 56 5 0 7 -13 4 -30z m-424 -12 c19 -19 14 -28 -13 -28 -31 0 -33
-17 -2 -23 19 -3 20 -4 4 -11 -21 -10 -47 9 -47 33 0 19 19 41 35 41 6 0 16
-5 23 -12z m90 -32 c2 -25 0 -36 -7 -31 -6 3 -11 20 -11 36 0 41 -24 33 -28
-9 -4 -43 -22 -31 -22 14 0 34 1 35 33 32 29 -3 32 -6 35 -42z m72 33 c0 -6
-9 -8 -20 -4 -11 3 -20 2 -20 -3 0 -5 9 -12 20 -15 11 -3 20 -12 20 -21 0 -21
-28 -32 -43 -17 -8 8 -5 11 14 12 l24 0 -22 11 c-32 15 -30 48 2 48 14 0 25
-5 25 -11z m84 -11 c14 -23 -3 -52 -32 -56 -12 -2 -23 -12 -25 -25 -2 -12 -5
6 -6 41 -1 63 -1 63 25 60 15 -2 32 -11 38 -20z m84 -20 c3 -33 1 -37 -20 -36
-34 2 -51 17 -37 34 6 8 18 14 26 14 8 0 11 5 8 11 -4 6 -13 8 -21 5 -8 -3
-14 -1 -14 5 0 6 12 9 28 7 23 -3 27 -8 30 -40z m62 32 c0 -5 -7 -10 -15 -10
-10 0 -15 -10 -15 -31 0 -17 -4 -28 -10 -24 -5 3 -10 22 -10 41 0 30 3 34 25
34 14 0 25 -4 25 -10z"/>
<path d="M4588 8596 c-37 -6 -70 -14 -74 -18 -3 -4 -3 -19 0 -34 7 -26 7 -26
79 -20 104 10 109 12 105 49 -4 38 -14 40 -110 23z"/>
<path d="M5530 8591 c-22 -43 -4 -53 118 -67 l63 -7 -3 34 c-3 36 -9 39 -120
53 -40 5 -49 3 -58 -13z"/>
<path d="M4301 8549 c-32 -10 -33 -12 -26 -47 4 -20 8 -39 10 -41 9 -8 96 11
101 22 2 7 0 26 -4 42 -9 34 -28 39 -81 24z"/>
<path d="M5854 8547 c-2 -7 -6 -26 -7 -42 -2 -26 2 -30 42 -42 52 -15 61 -8
61 44 0 29 -4 33 -37 42 -49 14 -53 14 -59 -2z"/>
<path d="M3952 8433 c-38 -13 -43 -18 -40 -42 2 -22 8 -26 30 -24 48 3 83 26
83 53 0 30 -17 33 -73 13z"/>
<path d="M6194 8435 c-11 -27 3 -42 52 -59 35 -12 51 -13 61 -5 25 22 15 46
-27 63 -50 20 -79 20 -86 1z"/>
<path d="M3783 8367 c-43 -21 -53 -43 -32 -64 9 -9 22 -8 53 4 55 21 70 36 61
62 -8 26 -28 26 -82 -2z"/>
<path d="M6372 8378 c-21 -21 -13 -37 28 -58 47 -24 76 -26 84 -4 11 28 7 35
-36 54 -51 23 -60 24 -76 8z"/>
<path d="M2901 7859 c-34 -28 -61 -57 -61 -64 0 -13 26 -45 36 -45 8 0 118 86
132 102 9 11 8 19 -4 36 -8 12 -21 22 -29 22 -7 0 -41 -23 -74 -51z"/>
<path d="M7225 7890 c-18 -20 -18 -21 34 -69 29 -26 64 -54 78 -62 22 -12 27
-11 39 6 8 10 14 24 14 31 0 14 -119 114 -136 114 -6 0 -19 -9 -29 -20z"/>
<path d="M2632 7637 c-18 -18 -32 -38 -32 -43 0 -6 14 -23 30 -39 l30 -29 38
37 37 37 -36 35 -35 35 -32 -33z"/>
<path d="M7530 7640 c-16 -17 -30 -35 -30 -39 0 -4 14 -22 32 -40 l31 -32 33
32 c36 35 35 46 -10 88 l-25 24 -31 -33z"/>
<path d="M2383 7356 c-58 -70 -62 -85 -35 -109 22 -20 31 -15 96 62 50 60 57
85 27 101 -30 16 -32 14 -88 -54z"/>
<path d="M7755 7400 c-22 -25 -15 -41 54 -119 44 -50 49 -53 69 -40 12 8 22
21 22 31 0 16 -106 148 -120 148 -4 0 -15 -9 -25 -20z"/>
<path d="M2190 7100 c-24 -34 -23 -58 3 -74 15 -9 22 -6 43 19 26 33 30 55 12
73 -19 19 -35 14 -58 -18z"/>
<path d="M7982 7118 c-18 -18 -15 -42 9 -72 23 -29 41 -33 59 -11 14 17 7 44
-21 73 -23 25 -30 27 -47 10z"/>
<path d="M1793 6318 c-6 -7 -13 -25 -17 -40 -5 -21 -2 -30 15 -38 25 -14 44
-1 53 36 11 42 -27 72 -51 42z"/>
<path d="M8391 6316 c-9 -11 -9 -22 3 -50 15 -37 22 -41 50 -30 19 7 20 33 4
69 -12 28 -39 33 -57 11z"/>
<path d="M1742 6178 c-31 -39 -23 -88 14 -88 41 0 61 70 25 90 -25 13 -26 13
-39 -2z"/>
<path d="M8433 6164 c-3 -9 -2 -28 3 -43 7 -20 16 -26 39 -26 34 0 41 17 26
58 -12 31 -57 38 -68 11z"/>
<path d="M1690 6000 c-18 -33 -5 -70 25 -70 28 0 48 30 43 63 -4 31 -52 36
-68 7z"/>
<path d="M8480 6004 c-21 -24 -1 -68 32 -72 22 -3 29 2 34 21 12 51 -36 88
-66 51z"/>
<path d="M1660 5850 c-6 -12 -10 -33 -8 -48 6 -51 68 -36 68 17 0 48 -40 68
-60 31z"/>
<path d="M8528 5859 c-35 -20 -11 -95 28 -88 23 5 31 48 14 79 -12 23 -18 24
-42 9z"/>
<path d="M8135 5015 c-5 -2 -22 -6 -38 -9 -40 -9 -107 -74 -130 -126 -31 -69
-28 -164 6 -222 84 -143 289 -122 363 36 45 97 25 219 -45 279 -42 35 -116 55
-156 42z"/>
<path d="M3045 5011 c-49 -23 -89 -64 -110 -114 -12 -30 -13 -38 -2 -42 7 -3
94 -4 192 -3 l180 3 -3 35 c-11 112 -143 174 -257 121z"/>
<path d="M6695 5011 c-179 -45 -247 -276 -116 -394 49 -44 122 -62 187 -46 57
15 136 84 159 141 32 78 17 186 -33 241 -40 45 -137 73 -197 58z"/>
<path d="M1718 4118 c-33 -11 -33 -11 -12 -71 18 -52 17 -52 63 -36 29 10 31
14 25 43 -17 78 -24 84 -76 64z"/>
<path d="M8452 4113 c-6 -10 -13 -35 -17 -54 -6 -34 -5 -37 25 -48 41 -14 45
-11 63 43 17 50 12 59 -35 71 -20 5 -29 2 -36 -12z"/>
<path d="M1811 3816 c-13 -15 -11 -23 31 -123 25 -60 35 -73 53 -73 45 0 48
22 14 106 -17 44 -35 85 -41 92 -14 16 -43 15 -57 -2z"/>
<path d="M8326 3739 c-39 -97 -38 -119 9 -119 19 0 28 14 59 91 39 97 38 119
-9 119 -19 0 -28 -14 -59 -91z"/>
<path d="M2315 2946 c-19 -13 -18 -15 8 -55 33 -49 53 -60 74 -39 17 18 8 44
-30 86 -24 26 -27 26 -52 8z"/>
<path d="M7851 2923 c-35 -42 -37 -76 -5 -81 30 -4 92 73 77 97 -18 28 -40 23
-72 -16z"/>
<path d="M7754 2815 c-29 -29 -30 -78 -2 -83 20 -4 68 43 68 67 0 9 -9 22 -20
29 -18 11 -24 9 -46 -13z"/>
<path d="M2416 2811 c-16 -17 -15 -20 10 -50 17 -21 34 -31 48 -29 30 4 33 44
5 74 -27 29 -40 30 -63 5z"/>
<path d="M2628 2586 l-27 -33 35 -34 c38 -37 56 -34 83 13 14 24 13 28 -16 57
-17 17 -35 31 -40 31 -4 0 -20 -15 -35 -34z"/>
<path d="M7526 2589 c-14 -17 -26 -36 -26 -43 0 -15 42 -56 56 -56 13 0 64 53
64 66 0 11 -52 64 -62 64 -3 0 -18 -14 -32 -31z"/>
<path d="M2852 2398 c-24 -24 -11 -46 55 -96 63 -49 68 -51 85 -35 30 27 21
47 -43 96 -66 50 -78 54 -97 35z"/>
<path d="M7272 2359 c-60 -48 -62 -52 -49 -72 23 -35 40 -31 106 23 62 53 70
67 49 88 -21 21 -42 13 -106 -39z"/>
<path d="M3741 1858 c-11 -30 0 -43 54 -64 49 -18 65 -13 65 20 0 19 -11 28
-49 45 -61 26 -60 26 -70 -1z"/>
<path d="M6410 1858 c-34 -18 -44 -28 -42 -43 6 -34 17 -36 68 -15 56 24 66
37 53 62 -13 23 -25 23 -79 -4z"/>
<path d="M3911 1788 c-5 -13 -7 -26 -5 -30 8 -13 94 -40 109 -34 28 10 14 49
-25 68 -48 23 -69 22 -79 -4z"/>
<path d="M6233 1790 c-44 -19 -53 -39 -30 -59 9 -7 24 -8 44 -2 54 16 74 31
71 54 -4 29 -33 32 -85 7z"/>
<path d="M4274 1686 c-11 -43 -1 -60 40 -70 33 -7 41 -6 53 10 22 30 16 63
-13 74 -45 17 -73 12 -80 -14z"/>
<path d="M5868 1703 c-13 -3 -18 -14 -18 -36 0 -48 12 -61 51 -53 54 10 61 18
54 60 -7 33 -10 36 -39 35 -17 -1 -39 -3 -48 -6z"/>
<path d="M4514 1626 c-3 -14 -3 -29 0 -34 3 -5 43 -15 88 -22 75 -11 83 -10
95 6 26 35 7 56 -59 65 -98 14 -117 12 -124 -15z"/>
<path d="M5582 1640 c-56 -9 -73 -31 -49 -63 11 -16 20 -16 92 -6 44 6 84 15
88 19 4 4 5 19 1 34 -5 23 -11 26 -48 25 -22 -1 -61 -5 -84 -9z"/>
<path d="M4170 3570 c-36 -36 -21 -90 25 -90 19 0 75 47 75 63 0 13 -44 47
-62 47 -10 0 -27 -9 -38 -20z"/>
<path d="M5996 3571 c-27 -28 -27 -30 -11 -55 23 -35 60 -44 85 -21 26 24 25
47 -2 72 -38 33 -44 34 -72 4z"/>
<path d="M5080 3281 c-17 -32 -12 -79 9 -91 27 -14 37 -13 55 6 21 21 21 90 0
98 -29 11 -53 6 -64 -13z"/>
<path d="M9182 308 c-15 -19 9 -40 25 -22 9 9 9 15 -1 23 -10 8 -16 8 -24 -1z"/>
<path d="M9103 283 c-17 -17 -18 -23 -7 -23 8 0 19 -10 24 -22 7 -18 9 -19 9
-5 1 10 11 21 23 26 l23 8 -22 7 c-12 4 -23 12 -25 19 -2 8 -11 4 -25 -10z"/>
<path d="M9185 230 c-3 -5 1 -10 10 -10 9 0 13 5 10 10 -3 6 -8 10 -10 10 -2
0 -7 -4 -10 -10z"/>
<path d="M9080 180 c0 -6 32 -10 75 -10 43 0 75 4 75 10 0 6 -32 10 -75 10
-43 0 -75 -4 -75 -10z"/>
<path d="M9465 240 c-3 -5 1 -10 10 -10 9 0 13 5 10 10 -3 6 -8 10 -10 10 -2
0 -7 -4 -10 -10z"/>
<path d="M9697 244 c-16 -16 -7 -44 14 -44 15 0 20 5 17 22 -3 22 -19 33 -31
22z"/>
<path d="M9785 210 c-3 -5 1 -10 9 -10 9 0 16 5 16 10 0 6 -4 10 -9 10 -6 0
-13 -4 -16 -10z"/>
</g>
</svg>
