<?xml version="1.0" encoding="UTF-8"?>
<svg width="512" height="512" version="1.1" viewBox="0 0 135.47 135.47" xmlns="http://www.w3.org/2000/svg">
 <g transform="translate(0,-161.53)">
  <circle cx="67.735" cy="229.27" r="67.735" fill="#ffb6c1" stroke-width=".26458"/>
  <g transform="matrix(.89583 0 0 .89583 7.0556 23.883)" fill="#fff">
   <path d="m67.735 187.35c-18.709 0-33.867 15.158-33.867 33.867s15.158 33.867 33.867 33.867 33.867-15.158 33.867-33.867-15.158-33.867-33.867-33.867zm0 5.6445c15.592 0 28.223 12.631 28.223 28.223s-12.631 28.223-28.223 28.223-28.223-12.631-28.223-28.223 12.631-28.223 28.223-28.223z"/>
   <path d="m84.667 204.28-33.867 11.289v22.578c-1.8897-0.94485-4.0523-1.4111-6.2168-1.4111-7.0558 0-12.779 5.1651-12.779 11.289s5.7232 11.289 12.779 11.289c7.0558 0 12.779-5.1651 12.779-11.289v-22.578l22.578-7.5259v11.289c-1.8897-0.94485-4.0523-1.4111-6.2168-1.4111-7.0558 0-12.779 5.1651-12.779 11.289s5.7232 11.289 12.779 11.289c7.0558 0 12.779-5.1651 12.779-11.289v-33.867z"/>
  </g>
 </g>
</svg> 